PathFileType	4	(X/Y/Z)	/Users/niels/Desktop/University/Third Semester/Perception and Action/Exam/Gymnastics Motion Tracking/Code for Gym Tracking/Analyzed Data/Webcam_Backflip/id3_1_baseline_Sports2D/id3_1_baseline_Sports2D_px_person00.trc
DataRate	CameraRate	NumFrames	NumMarkers	Units	OrigDataRate	OrigDataStartFrame	OrigNumFrames
29.80392156862745	29.80392156862745	8	22	m	29.80392156862745	19	153
Frame#	Time	Hip			RHip			RKnee			RAnkle			RBigToe			RSmallToe			RHeel			LHip			LKnee			LAnkle			LBigToe			LSmallToe			LHeel			Neck			Head			Nose			RShoulder			RElbow			RWrist			LShoulder			LElbow			LWrist		
		X1	Y1	Z1	X2	Y2	Z2	X3	Y3	Z3	X4	Y4	Z4	X5	Y5	Z5	X6	Y6	Z6	X7	Y7	Z7	X8	Y8	Z8	X9	Y9	Z9	X10	Y10	Z10	X11	Y11	Z11	X12	Y12	Z12	X13	Y13	Z13	X14	Y14	Z14	X15	Y15	Z15	X16	Y16	Z16	X17	Y17	Z17	X18	Y18	Z18	X19	Y19	Z19	X20	Y20	Z20	X21	Y21	Z21	X22	Y22	Z22
19	0.6375	1.049825053279996	-0.43153969650113916	0.0	1.0535636867590765	-0.42867347820877133	0.0	1.146874195780786	-0.4825536443956742	0.0	1.091917476363027	-0.5956283139573374	0.0	1.113516404132428	-0.6364478167687784	0.0	1.1070359357872555	-0.6368952120949195	0.0	1.0743283030105932	-0.6069124245387515	0.0	1.0470674075936575	-0.43241773125214006	0.0	1.1349383182467687	-0.48272817896415354	0.0	1.0888406423574997	-0.591364002294515	0.0	1.1131226122420212	-0.6333765720985721	0.0	1.1042027411866988	-0.6304680662238973	0.0	1.0697819405132964	-0.6013200912011285	0.0	0.9353060235812792	-0.34749196707185687	0.0	0.8518751511932409	-0.34197409941212575	0.0	0.8952878785488543	-0.30903240820397915	0.0	0.9448928965161479	-0.3419794170406694	0.0	0.9914108399357489	-0.30931280074717454	0.0	1.0152306478007873	-0.24157094994810674	0.0	0.9421157665347104	-0.3476382393600049	0.0	0.9949278633439453	-0.317370072120832	0.0	1.0220567280194515	-0.2742609769785343	0.0
20	0.6710526315789473	1.051601297203191	-0.4121076110839485	0.0	1.05584301267647	-0.4099362708485288	0.0	1.1576865983826616	-0.4263397530248449	0.0	1.122554201383119	-0.5371899103766449	0.0	1.1536620079439837	-0.5664592140758765	0.0	1.1484031237609122	-0.5689999182489087	0.0	1.1066344518330686	-0.5495578001636289	0.0	1.0484761258006015	-0.4139535520898274	0.0	1.144889180062557	-0.4280619884461324	0.0	1.1188150314065104	-0.5325515104050454	0.0	1.1500851647099855	-0.5643253744740697	0.0	1.1428625891473196	-0.5633309054558854	0.0	1.1015347290822741	-0.5447734847689268	0.0	0.9295989050798803	-0.33659102053882944	0.0	0.847162092266811	-0.3360400162087019	0.0	0.8880125541062321	-0.3010364652073744	0.0	0.9398613781561883	-0.3298656372435862	0.0	0.992988087623945	-0.3047406756445253	0.0	1.0212871713335339	-0.23604523605762928	0.0	0.9374421895028707	-0.33801914082143725	0.0	0.9965058600130968	-0.3161761325599375	0.0	1.0299723388949655	-0.2792317495437044	0.0
21	0.7046052631578947	1.0553580428496858	-0.3988326416013627	0.0	1.060037195799375	-0.3975698379563202	0.0	1.1563794713904065	-0.37280950874965335	0.0	1.1500338779540604	-0.4773075212761562	0.0	1.189246937242036	-0.48929422984382476	0.0	1.185906993808112	-0.49471984346033887	0.0	1.1381968781065541	-0.49129697417230433	0.0	1.0513146608373303	-0.400840543324064	0.0	1.1430181846991856	-0.37613074703792193	0.0	1.1455707656837946	-0.4721182370918976	0.0	1.1822062950216907	-0.4882245199415499	0.0	1.1774890444126276	-0.489244389277224	0.0	1.1327353938922695	-0.4873784555135861	0.0	0.9275041574946872	-0.33050694891850657	0.0	0.847301700028899	-0.3319668479091152	0.0	0.8859001455702893	-0.2974253180721355	0.0	0.939052616254384	-0.32275059640623827	0.0	1.0002034019786445	-0.30197554158550716	0.0	1.032514025732041	-0.23337795675323697	0.0	0.9362028503416661	-0.33290108935153623	0.0	1.0012008212782177	-0.31525326644850193	0.0	1.039968045538813	-0.2806662042441239	0.0
22	0.7381578947368421	1.0624588349669855	-0.38930892154804564	0.0	1.067482946892496	-0.3889750360782564	0.0	1.1430088791226751	-0.3265942592042591	0.0	1.170028392067421	-0.41726119908584447	0.0	1.2117872576421689	-0.40942122627615113	0.0	1.2114930439240954	-0.4176598067868027	0.0	1.164302272489597	-0.4323609322164976	0.0	1.057303861196581	-0.3905667625413157	0.0	1.129647289002628	-0.33105490660434944	0.0	1.16475302661527	-0.41176051517121753	0.0	1.2022766633255566	-0.4092721945007274	0.0	1.2004968197256822	-0.4118140073979368	0.0	1.1588396791824915	-0.4294358811699299	0.0	0.9296052233819718	-0.3299946567607512	0.0	0.852197395942099	-0.33284260221796796	0.0	0.8886759348250461	-0.29979744800913066	0.0	0.9427368448190512	-0.3210485279231841	0.0	1.0114255555788658	-0.30004595204540346	0.0	1.0446266888225944	-0.23277601942309079	0.0	0.9388870543948858	-0.33233178815530173	0.0	1.0072757347492185	-0.3126004285997636	0.0	1.047902130815329	-0.27614054642555597	0.0
23	0.7717105263157895	1.0730450724411442	-0.3806716066763413	0.0	1.078342769159437	-0.38095704261836655	0.0	1.1203067821724706	-0.2920222167355217	0.0	1.178866496148076	-0.35943408464781434	0.0	1.215311770392699	-0.3335808006383552	0.0	1.2192823733757183	-0.3436302088103763	0.0	1.1800342816121407	-0.3740136644257198	0.0	1.0669088513844678	-0.38046654225724497	0.0	1.1074536193308167	-0.2968427930346045	0.0	1.1726310966481668	-0.35426193545337153	0.0	1.2050091272357357	-0.334016229171403	0.0	1.206023670191264	-0.33715500619014166	0.0	1.174849503787372	-0.37224902731153675	0.0	0.9361014402885107	-0.33577483129709856	0.0	0.862236264303345	-0.3418482210513664	0.0	0.8962260068997627	-0.31025000140757464	0.0	0.9505096069168288	-0.3253591774901762	0.0	1.0244918501121787	-0.2992921081054941	0.0	1.0537704491506674	-0.23468171536784255	0.0	0.9456888366018349	-0.33665916743956603	0.0	1.0137523426990591	-0.30927386427920617	0.0	1.0515279702742824	-0.26854565334820657	0.0
24	0.8052631578947369	1.0860341019969197	-0.3706860845463867	0.0	1.0913413285364943	-0.37108971436712385	0.0	1.0927013355682664	-0.2716644911252641	0.0	1.1745487494585234	-0.30742671256898874	0.0	1.198254431922922	-0.2693979196746683	0.0	1.2072314075509978	-0.2796316487371271	0.0	1.1818228667139128	-0.31941212930545404	0.0	1.0793440758984936	-0.3686468455669852	0.0	1.0807595675530302	-0.2759577398416962	0.0	1.167134167248427	-0.3033018510298985	0.0	1.1885063049892213	-0.26970368760763314	0.0	1.1915802122760524	-0.2723476366942518	0.0	1.1766461588325945	-0.3187828426886705	0.0	0.9471397332031208	-0.34812249845354487	0.0	0.8783527115079124	-0.36084001442231584	0.0	0.9088778208283375	-0.3304498739734359	0.0	0.9618864042957433	-0.33608004068120845	0.0	1.0372906051629738	-0.3005074941151997	0.0	1.0576734820599134	-0.24014336355962163	0.0	0.9568397060710088	-0.34627183481029566	0.0	1.0206816989985417	-0.30790958024551873	0.0	1.050858714912546	-0.2631333667237496	0.0
25	0.8388157894736842	1.0994735658981445	-0.35850100963764076	0.0	1.1040825810308348	-0.3586209074381724	0.0	1.0648838619455465	-0.2656767197116706	0.0	1.1574341013381062	-0.2653981494191965	0.0	1.163476624473876	-0.22342758119115036	0.0	1.177277888630107	-0.23209254209810165	0.0	1.1687707140997088	-0.2731933692718225	0.0	1.0931110233980512	-0.3546344472732298	0.0	1.0545777590972392	-0.2685989755223609	0.0	1.1484992250618313	-0.262635093424009	0.0	1.1547587328641664	-0.22234158962291758	0.0	1.1586804937672988	-0.22353503280615028	0.0	1.1626671185346222	-0.2732367524058873	0.0	0.9632358436418225	-0.3664645236424082	0.0	0.9019117961749572	-0.3895114089483558	0.0	0.927498287743519	-0.3604320402223696	0.0	0.97670237290908	-0.3528776205553746	0.0	1.0481703267768685	-0.30438294407680505	0.0	1.056080722076174	-0.25017282835484617	0.0	0.9729521905781571	-0.3611905306205404	0.0	1.028755259058585	-0.31053949504876344	0.0	1.0475998531749808	-0.2639075513681775	0.0
26	0.8723684210526316	1.1111404170146524	-0.34481920210027667	0.0	1.1140417136534901	-0.3445637285056864	0.0	1.0407165466140613	-0.2722866577311243	0.0	1.1301995806028886	-0.23701199008500956	0.0	1.1167693896979634	-0.19953184177006475	0.0	1.1342109379080612	-0.20519537592453135	0.0	1.1429435822977634	-0.2397909467599439	0.0	1.1062787025804857	-0.3395531277147704	0.0	1.033211659071496	-0.27306853280202525	0.0	1.1191847244872586	-0.23519900711865732	0.0	1.1088702283436882	-0.19573601666676457	0.0	1.112457930533242	-0.19498924893931016	0.0	1.134802864805437	-0.2395847476949667	0.0	0.9852974452030715	-0.3891052288292793	0.0	0.9344472024614852	-0.42504248973760844	0.0	0.9531670944595436	-0.39764935719293937	0.0	0.9952031008766803	-0.37428806117819097	0.0	1.0562610977994682	-0.3113755531568501	0.0	1.0505350326019012	-0.26530111231580555	0.0	0.9949800359659613	-0.38047696400774195	0.0	1.038750795200923	-0.3177474544467969	0.0	1.0445712690933295	-0.27232871332287234	0.0
